<?xml version="1.0" encoding="UTF-8"?>
<svg id="Layer_1" data-name="Layer 1" xmlns="http://www.w3.org/2000/svg" viewBox="0 0 1000 400">
  <defs>
    <style>
      .cls-1 {
        fill: #fff;
      }

      .cls-2 {
        fill: #929292;
      }

      .cls-3 {
        fill: #92bc3c;
      }

      .cls-4 {
        fill: #0a3f78;
      }

      .cls-5 {
        fill: #5984b1;
      }

      .cls-6 {
        fill: #f2d34e;
      }

      .cls-7 {
        fill: #148314;
        stroke: #148314;
        stroke-miterlimit: 10;
        stroke-width: 4px;
      }
    </style>
  </defs>
  <g>
    <path class="cls-3" d="M300.36,191.58c-.36-3.6-1.91-6.4-4.65-8.39-2.74-1.99-6.46-2.99-11.16-2.99-3.19,0-5.89.44-8.08,1.32-2.2.88-3.88,2.09-5.04,3.64-1.16,1.55-1.74,3.3-1.74,5.27-.06,1.64.29,3.07,1.06,4.29.77,1.22,1.83,2.27,3.18,3.15,1.35.88,2.92,1.64,4.7,2.28,1.78.64,3.67,1.18,5.69,1.63l8.31,1.96c4.03.89,7.74,2.08,11.11,3.57,3.37,1.49,6.29,3.32,8.76,5.49,2.47,2.17,4.39,4.73,5.76,7.68,1.37,2.95,2.07,6.32,2.1,10.13-.03,5.6-1.47,10.44-4.31,14.53-2.85,4.09-6.94,7.26-12.28,9.51-5.34,2.25-11.78,3.37-19.31,3.37s-13.96-1.13-19.49-3.39c-5.53-2.26-9.83-5.62-12.92-10.07-3.09-4.45-4.71-9.96-4.86-16.54h18.92c.21,3.07,1.11,5.62,2.69,7.66,1.58,2.04,3.7,3.57,6.37,4.6,2.66,1.03,5.68,1.54,9.06,1.54s6.19-.48,8.65-1.43c2.45-.95,4.36-2.28,5.71-3.97,1.35-1.7,2.03-3.65,2.03-5.85,0-2.05-.61-3.78-1.83-5.18-1.22-1.4-3-2.59-5.33-3.57-2.33-.98-5.19-1.88-8.56-2.68l-10.07-2.5c-7.8-1.88-13.96-4.81-18.47-8.79-4.52-3.99-6.76-9.36-6.73-16.12-.03-5.54,1.47-10.37,4.49-14.51,3.03-4.14,7.19-7.37,12.49-9.69,5.3-2.32,11.32-3.48,18.07-3.48s12.86,1.16,18,3.48c5.13,2.32,9.13,5.55,11.99,9.69,2.86,4.14,4.34,8.93,4.43,14.38h-18.74Z"/>
    <path class="cls-3" d="M333.47,256.71v-91.44h36.49c7.02,0,12.99,1.32,17.93,3.95,4.94,2.63,8.71,6.28,11.31,10.94,2.6,4.66,3.91,10.02,3.91,16.09s-1.33,11.43-3.97,16.07c-2.65,4.64-6.48,8.26-11.49,10.85-5.01,2.59-11.07,3.88-18.18,3.88h-23.26v-15.49h20.1c3.76,0,6.87-.65,9.33-1.94,2.45-1.29,4.29-3.09,5.51-5.4,1.22-2.31,1.83-4.96,1.83-7.97s-.61-5.69-1.83-7.97c-1.22-2.28-3.06-4.05-5.53-5.31-2.47-1.26-5.6-1.9-9.39-1.9h-13.19v75.63h-19.56Z"/>
    <path class="cls-3" d="M415.84,256.71v-91.44h62.33v15.94h-42.77v21.79h39.56v15.94h-39.56v21.83h42.95v15.94h-62.51Z"/>
    <path class="cls-3" d="M575.36,197.29h-19.78c-.36-2.53-1.1-4.78-2.21-6.76-1.11-1.98-2.54-3.67-4.29-5.07-1.75-1.4-3.76-2.47-6.03-3.21s-4.74-1.12-7.38-1.12c-4.79,0-8.96,1.17-12.51,3.5-3.55,2.34-6.31,5.73-8.26,10.18-1.96,4.45-2.94,9.85-2.94,16.18s.99,12,2.96,16.43c1.97,4.44,4.73,7.78,8.29,10.05s7.66,3.39,12.33,3.39c2.62,0,5.05-.34,7.29-1.03,2.24-.68,4.24-1.69,5.98-3.01,1.75-1.32,3.2-2.94,4.36-4.84,1.16-1.91,1.96-4.08,2.42-6.52l19.78.09c-.51,4.2-1.78,8.24-3.82,12.12-2.03,3.88-4.76,7.35-8.17,10.4-3.42,3.05-7.48,5.46-12.19,7.23-4.71,1.77-10.03,2.66-15.97,2.66-8.25,0-15.62-1.84-22.11-5.54-6.49-3.69-11.61-9.03-15.36-16.03s-5.62-15.46-5.62-25.4,1.9-18.45,5.69-25.45c3.79-6.99,8.94-12.33,15.45-16.01,6.5-3.68,13.82-5.51,21.95-5.51,5.36,0,10.33.74,14.93,2.23,4.59,1.49,8.66,3.65,12.22,6.5,3.55,2.84,6.45,6.32,8.69,10.43,2.24,4.11,3.68,8.81,4.31,14.11Z"/>
    <path class="cls-3" d="M585.88,181.22v-15.94h75.96v15.94h-28.32v75.5h-19.33v-75.5h-28.32Z"/>
    <path class="cls-5" d="M674.4,256.71v-91.44h19.56v75.5h39.65v15.94h-59.21Z"/>
    <path class="cls-5" d="M762.52,256.71h-20.96l31.93-91.44h25.2l31.88,91.44h-20.96l-23.17-70.54h-.72l-23.21,70.54ZM761.21,220.78h49.5v15.09h-49.5v-15.09Z"/>
    <path class="cls-5" d="M841.69,256.71v-91.44h37.03c6.8,0,12.48,1,17.03,2.99,4.55,1.99,7.96,4.75,10.25,8.28,2.29,3.53,3.43,7.58,3.43,12.17,0,3.57-.72,6.7-2.17,9.4-1.44,2.69-3.42,4.9-5.94,6.61-2.51,1.71-5.38,2.92-8.6,3.64v.89c3.52.15,6.83,1.13,9.91,2.95,3.09,1.82,5.59,4.35,7.52,7.61,1.93,3.26,2.89,7.14,2.89,11.63,0,4.85-1.21,9.17-3.64,12.97s-6,6.79-10.73,9c-4.73,2.2-10.55,3.3-17.48,3.3h-39.52ZM861.24,203.54h14.5c2.68,0,5.07-.47,7.16-1.41,2.09-.94,3.75-2.27,4.97-4,1.22-1.73,1.83-3.79,1.83-6.21,0-3.3-1.18-5.97-3.54-7.99-2.36-2.02-5.71-3.04-10.05-3.04h-14.86v22.64ZM861.24,240.91h15.94c5.45,0,9.42-1.03,11.92-3.1,2.5-2.07,3.75-4.83,3.75-8.28,0-2.53-.62-4.76-1.85-6.7s-2.99-3.45-5.26-4.55c-2.27-1.1-4.98-1.65-8.11-1.65h-16.39v24.29Z"/>
  </g>
  <g>
    <path class="cls-2" d="M382.94,306.92v-27.68h5.74l7.1,11.88c1.81,3.06,3.41,6.27,4.68,9.28l.1-.03c-.35-3.68-.45-7.24-.45-11.47v-9.66h4.64v27.68h-5.2l-7.17-12.17c-1.75-3.04-3.58-6.41-4.93-9.55l-.13.03c.2,3.59.27,7.25.27,11.79v9.9h-4.64Z"/>
    <path class="cls-2" d="M415.49,279.25v16.14c0,5.41,2.23,7.93,5.63,7.93,3.61,0,5.79-2.5,5.79-7.93v-16.14h5.02v15.81c0,8.53-4.36,12.32-10.99,12.32s-10.47-3.58-10.47-12.29v-15.84h5.02Z"/>
    <path class="cls-2" d="M457.38,306.1c-1.19.6-3.8,1.25-7.13,1.25-8.72,0-14.03-5.51-14.03-13.94,0-9.1,6.31-14.6,14.71-14.6,3.31,0,5.64.67,6.66,1.22l-1.09,4.03c-1.28-.59-3.11-1.08-5.36-1.08-5.6,0-9.63,3.52-9.63,10.18,0,6.1,3.53,9.96,9.57,9.96,2.03,0,4.15-.41,5.48-1l.83,3.98Z"/>
    <path class="cls-2" d="M461.62,279.25h5.02v23.43h11.3v4.24h-16.32v-27.68Z"/>
    <path class="cls-2" d="M497.09,294.64h-10.36v8.12h11.58v4.16h-16.6v-27.68h16v4.16h-10.97v7.12h10.36v4.12Z"/>
    <path class="cls-2" d="M508.22,299.1l-2.34,7.82h-5.19l8.82-27.68h6.39l8.93,27.68h-5.39l-2.49-7.82h-8.73ZM516.12,295.28l-2.17-6.82c-.53-1.71-.98-3.6-1.4-5.2h-.09c-.4,1.62-.82,3.54-1.31,5.19l-2.12,6.84h7.08Z"/>
    <path class="cls-2" d="M528.63,279.62c1.91-.35,4.7-.59,7.61-.59,3.94,0,6.62.67,8.47,2.23,1.51,1.27,2.37,3.18,2.37,5.56,0,3.56-2.41,6-5,6.91v.12c1.99.76,3.15,2.67,3.83,5.36.87,3.46,1.62,6.64,2.17,7.71h-5.16c-.43-.8-1.08-3.09-1.85-6.53-.79-3.61-2.09-4.78-4.94-4.84h-2.53v11.37h-4.98v-27.3ZM533.62,291.84h2.97c3.4,0,5.5-1.81,5.5-4.56,0-3.01-2.11-4.43-5.35-4.44-1.59,0-2.61.12-3.12.26v8.74Z"/>
    <path class="cls-2" d="M583.48,295.63c-.17-3.57-.35-7.87-.33-11.64h-.11c-.91,3.39-2.06,7.13-3.24,10.63l-4.03,11.98h-3.86l-3.64-11.81c-1.08-3.55-2.06-7.31-2.78-10.79h-.09c-.12,3.62-.28,8.04-.49,11.81l-.61,11.12h-4.68l1.83-27.68h6.6l3.58,11.12c.99,3.27,1.87,6.55,2.53,9.64h.12c.74-3.02,1.68-6.4,2.75-9.66l3.81-11.09h6.51l1.58,27.68h-4.89l-.53-11.29Z"/>
    <path class="cls-2" d="M609.36,294.64h-10.36v8.12h11.58v4.16h-16.6v-27.68h16v4.16h-10.97v7.12h10.36v4.12Z"/>
    <path class="cls-2" d="M614.97,279.62c2.24-.37,5.04-.59,8.01-.59,5.16,0,8.67,1.08,11.2,3.2,2.68,2.19,4.31,5.49,4.31,10.18,0,4.96-1.68,8.63-4.28,11.01-2.76,2.49-7.11,3.77-12.45,3.77-2.92,0-5.13-.15-6.79-.36v-27.2ZM619.99,303.06c.7.12,1.77.13,2.8.13,6.52.04,10.4-3.61,10.4-10.61.03-6.1-3.46-9.62-9.77-9.62-1.57,0-2.7.14-3.42.29v19.81Z"/>
    <path class="cls-2" d="M647.84,279.25v27.68h-5.02v-27.68h5.02Z"/>
    <path class="cls-2" d="M673.31,306.1c-1.19.6-3.8,1.25-7.13,1.25-8.72,0-14.03-5.51-14.03-13.94,0-9.1,6.31-14.6,14.71-14.6,3.31,0,5.64.67,6.66,1.22l-1.09,4.03c-1.28-.59-3.11-1.08-5.36-1.08-5.6,0-9.63,3.52-9.63,10.18,0,6.1,3.53,9.96,9.57,9.96,2.03,0,4.15-.41,5.48-1l.83,3.98Z"/>
    <path class="cls-2" d="M682.57,279.25v27.68h-5.02v-27.68h5.02Z"/>
    <path class="cls-2" d="M688.31,306.92v-27.68h5.74l7.1,11.88c1.81,3.06,3.41,6.27,4.68,9.28l.1-.03c-.35-3.68-.45-7.24-.45-11.47v-9.66h4.64v27.68h-5.2l-7.17-12.17c-1.75-3.04-3.58-6.41-4.93-9.55l-.13.03c.2,3.59.27,7.25.27,11.79v9.9h-4.64Z"/>
    <path class="cls-2" d="M731.25,294.64h-10.36v8.12h11.58v4.16h-16.6v-27.68h16v4.16h-10.97v7.12h10.36v4.12Z"/>
    <path class="cls-2" d="M745.21,301.41c1.62.94,4.08,1.76,6.64,1.76,3.2,0,5-1.51,5-3.78,0-2.09-1.39-3.32-4.87-4.59-4.54-1.62-7.44-4.07-7.44-8.04,0-4.53,3.76-7.95,9.73-7.95,2.98,0,5.16.64,6.59,1.37l-1.2,4.08c-.99-.52-2.91-1.31-5.49-1.31-3.19,0-4.54,1.71-4.54,3.33,0,2.12,1.59,3.12,5.26,4.53,4.77,1.84,7.07,4.25,7.07,8.23,0,4.45-3.33,8.31-10.42,8.31-2.91,0-5.93-.83-7.43-1.76l1.11-4.19Z"/>
    <path class="cls-2" d="M781.84,294.64h-10.36v8.12h11.58v4.16h-16.6v-27.68h16v4.16h-10.97v7.12h10.36v4.12Z"/>
    <path class="cls-2" d="M787.45,279.62c1.91-.35,4.7-.59,7.61-.59,3.94,0,6.62.67,8.47,2.23,1.51,1.27,2.37,3.18,2.37,5.56,0,3.56-2.41,6-5,6.91v.12c1.99.76,3.15,2.67,3.83,5.36.87,3.46,1.62,6.64,2.17,7.71h-5.16c-.43-.8-1.08-3.09-1.85-6.53-.79-3.61-2.09-4.78-4.94-4.84h-2.53v11.37h-4.98v-27.3ZM792.43,291.84h2.97c3.4,0,5.5-1.81,5.5-4.56,0-3.01-2.11-4.43-5.35-4.44-1.59,0-2.61.12-3.12.26v8.74Z"/>
    <path class="cls-2" d="M817.1,306.92l-8.9-27.68h5.48l3.75,12.58c1.06,3.49,1.98,6.73,2.69,10.08h.09c.73-3.27,1.72-6.64,2.79-10l4.01-12.66h5.34l-9.5,27.68h-5.75Z"/>
    <path class="cls-2" d="M840.33,279.25v27.68h-5.02v-27.68h5.02Z"/>
    <path class="cls-2" d="M865.8,306.1c-1.19.6-3.8,1.25-7.13,1.25-8.72,0-14.03-5.51-14.03-13.94,0-9.1,6.31-14.6,14.71-14.6,3.31,0,5.64.67,6.66,1.22l-1.09,4.03c-1.28-.59-3.11-1.08-5.36-1.08-5.6,0-9.63,3.52-9.63,10.18,0,6.1,3.53,9.96,9.57,9.96,2.03,0,4.15-.41,5.48-1l.83,3.98Z"/>
    <path class="cls-2" d="M885.42,294.64h-10.36v8.12h11.58v4.16h-16.6v-27.68h16v4.16h-10.97v7.12h10.36v4.12Z"/>
    <path class="cls-2" d="M890.94,301.41c1.62.94,4.08,1.76,6.64,1.76,3.2,0,5-1.51,5-3.78,0-2.09-1.39-3.32-4.87-4.59-4.54-1.62-7.44-4.07-7.44-8.04,0-4.53,3.76-7.95,9.73-7.95,2.98,0,5.16.64,6.59,1.37l-1.2,4.08c-.99-.52-2.91-1.31-5.49-1.31-3.19,0-4.54,1.71-4.54,3.33,0,2.12,1.59,3.12,5.26,4.53,4.77,1.84,7.07,4.25,7.07,8.23,0,4.45-3.33,8.31-10.42,8.31-2.91,0-5.93-.83-7.43-1.76l1.11-4.19Z"/>
  </g>
  <g>
    <path class="cls-4" d="M117.16,80.16h12.9c14.83,0,23.59,7.73,23.59,23.21s-8.76,23.58-23.14,23.58h-13.35v-46.78ZM129.5,120.22c9.74,0,15.33-5.35,15.33-16.85s-5.59-16.48-15.33-16.48h-3.76v33.33h3.76Z"/>
    <path class="cls-4" d="M162.66,91.81h6.98l.65,6.27h.24c2.59-4.58,6.44-7.12,10.33-7.12,1.85,0,3.02.23,4.11.72l-1.48,7.15c-1.27-.34-2.22-.57-3.73-.57-2.9,0-6.39,1.92-8.58,7.27v21.43h-8.52v-35.14Z"/>
    <path class="cls-4" d="M184.11,122.25c0-3.23,2.4-5.61,5.5-5.61s5.5,2.38,5.5,5.61-2.4,5.55-5.5,5.55-5.5-2.38-5.5-5.55Z"/>
    <path class="cls-4" d="M217.42,120.95l5-5.69c3.46,3.19,8.11,5.34,12.61,5.34,5.45,0,8.44-2.39,8.44-6.04,0-3.85-3.12-5.08-7.52-6.88l-6.61-2.78c-4.76-1.92-9.78-5.57-9.78-12.4,0-7.45,6.81-13.19,16.25-13.19,5.65,0,11.13,2.26,14.92,5.97l-4.41,5.27c-3.08-2.53-6.36-4.02-10.51-4.02-4.59,0-7.58,2.07-7.58,5.49,0,3.68,3.69,5.04,7.7,6.62l6.53,2.65c5.76,2.32,9.78,5.84,9.78,12.62,0,7.58-6.51,13.91-17.37,13.91-6.54,0-12.84-2.49-17.43-6.85Z"/>
    <path class="cls-4" d="M257.92,109.41c0-11.7,8.23-18.46,17.28-18.46s17.28,6.75,17.28,18.46-8.23,18.4-17.28,18.4-17.28-6.75-17.28-18.4ZM283.72,109.41c0-7.04-3.2-11.73-8.52-11.73s-8.52,4.69-8.52,11.73,3.2,11.67,8.52,11.67,8.52-4.64,8.52-11.67Z"/>
    <path class="cls-4" d="M300.49,117.9v-41.49h8.52v41.92c0,2.03.95,2.75,1.83,2.75.38,0,.68,0,1.33-.14l1.07,6.15c-1.04.4-2.46.72-4.5.72-6.04,0-8.26-3.78-8.26-9.9Z"/>
    <path class="cls-4" d="M318.58,117.5c0-7.53,6.45-11.45,21.37-12.99-.12-3.78-1.69-6.92-6.6-6.92-3.61,0-7.01,1.57-10.21,3.46l-3.14-5.49c4-2.43,9.15-4.61,14.92-4.61,9.09,0,13.55,5.41,13.55,15.19v20.8h-6.98l-.65-3.89h-.24c-3.26,2.69-6.98,4.75-11.28,4.75-6.36,0-10.74-4.18-10.74-10.3ZM339.95,117.53v-7.9c-9.86,1.2-13.14,3.69-13.14,7.24,0,3.1,2.19,4.46,5.24,4.46s5.21-1.4,7.9-3.81Z"/>
    <path class="cls-4" d="M354.18,91.81h8.64l5.77,18.23c1.01,3.46,2.07,7.07,3.08,10.59h.3c1.01-3.52,2.07-7.12,3.08-10.59l5.77-18.23h8.23l-12.34,35.14h-9.86l-12.67-35.14Z"/>
    <path class="cls-4" d="M394.86,95.3c4.08-2.23,6.16-4.86,6.16-9.04l-.58-5.47,3.33,4.22c-1.01.86-2.1,1.39-3.43,1.39-2.6,0-4.82-1.66-4.82-4.44,0-3.03,2.01-4.92,4.82-4.92,3.76,0,5.83,2.89,5.83,7.93,0,6.24-3.11,10.9-9.23,14.02l-2.07-3.69Z"/>
    <path class="cls-4" d="M408.96,122.91l3.97-5.24c3.23,2.43,6.35,3.92,10.03,3.92,3.97,0,5.83-1.8,5.83-4.21,0-2.95-3.94-4.26-7.81-5.69-4.76-1.73-10.21-4.38-10.21-10.24s5.09-10.5,13.23-10.5c5.06,0,9.12,1.99,12.08,4.21l-3.91,5.06c-2.55-1.8-5.11-3.06-7.96-3.06-3.65,0-5.39,1.69-5.39,3.89,0,2.78,3.67,3.83,7.61,5.24,4.91,1.77,10.42,4.06,10.42,10.62,0,6.04-4.94,10.9-14.12,10.9-4.97,0-10.21-2.06-13.76-4.89Z"/>
  </g>
  <g>
    <polygon class="cls-7" points="105.39 155.16 129.91 224.2 129.91 317.43 228.3 249.36 228.3 155.16 105.39 155.16"/>
    <polygon class="cls-1" points="133.19 222.14 225.13 157.29 226.34 247.79 133.19 310.45 133.19 222.14"/>
    <polyline class="cls-6" points="49.37 283.34 127.43 224.62 127.76 322.28 49.37 283.34"/>
  </g>
</svg>